<?xml version="1.0" encoding="UTF-8"?>
<svg width="62px" height="88px" viewBox="0 0 62 88" version="1.1" xmlns="http://www.w3.org/2000/svg" xmlns:xlink="http://www.w3.org/1999/xlink">
    <!-- Generator: Sketch 60 (88103) - https://sketch.com -->
    <title>noun_beverage_399395</title>
    <desc>Created with Sketch.</desc>
    <g id="Page-1" stroke="none" strokeWidth="1" fill="none" fill-rule="evenodd">
        <g id="noun_beverage_399395" fill="#FFFFFF" fillRule="nonzero">
            <path d="M58.708,38.506 C55.984,34.969 51.678,34.979 47.769,36.123 C48.057,34.268 48.344,32.412 48.632,30.555 C49.033,27.963 49.797,25.173 49.727,22.549 C49.715,22.067 49.29,21.85 48.924,21.939 C48.937,21.788 48.899,21.629 48.77,21.496 C47.161,19.815 44.203,19.062 41.808,18.719 C42.874,15.5 43.729,12.174 43.9,8.893 C44.082,5.399 42.457,-0.198 37.975,0.195 C33.721,0.57 32.252,5.935 32.028,9.413 C31.869,11.844 31.924,14.438 32.217,17.009 C27.103,16.53 21.848,16.712 16.73,17.02 C11.76,17.319 6.686,17.764 1.845,18.974 C1.717,19.006 1.624,19.08 1.561,19.175 C1.118,19.127 0.679,19.673 1.106,20.023 C1.287,20.169 1.478,20.306 1.663,20.448 C1.659,25.354 2.268,30.314 2.678,35.191 C3.115,40.377 3.573,45.561 4.023,50.745 C4.924,61.114 5.825,71.483 6.727,81.851 C6.732,81.914 6.744,81.973 6.759,82.028 C6.59,82.204 6.562,82.515 6.834,82.667 C11.579,85.313 17.287,86.738 22.67,87.214 C27.962,87.682 33.467,86.936 38.174,84.375 C38.305,84.304 38.394,84.214 38.457,84.116 C38.64,84.132 38.83,84.064 38.94,83.881 C41.44,79.708 41.792,74.59 42.525,69.884 C42.719,68.634 42.914,67.383 43.108,66.131 C47.306,67.015 52.141,67.156 55.798,64.582 C59.729,61.816 60.827,56.645 61.257,52.147 C61.682,47.696 61.571,42.221 58.708,38.506 Z M44.56,20.843 C45.777,21.331 46.94,22.149 48.208,22.462 C48.281,22.479 48.352,22.483 48.418,22.475 C48.411,22.496 48.404,22.519 48.397,22.541 C48.337,22.52 48.275,22.509 48.209,22.509 C46.299,22.512 44.315,23.203 42.441,23.568 C41.592,23.734 40.74,23.889 39.887,24.037 C40.418,22.633 40.961,21.187 41.469,19.716 C42.512,20.058 43.539,20.435 44.56,20.843 Z M37.655,1.822 C40.083,1.16 41.671,3.924 42.111,5.883 C42.563,7.889 42.292,9.993 41.873,11.979 C41.029,15.967 39.73,19.884 38.309,23.7 C38.22,23.937 38.248,24.14 38.342,24.299 C37.646,24.41 36.949,24.516 36.251,24.613 C35.858,24.668 35.464,24.717 35.07,24.765 C34.443,20.634 33.638,16.592 33.544,12.391 C33.47,9.096 33.586,2.931 37.655,1.822 Z M17.082,18.551 C22.162,18.269 27.196,18.47 32.274,18.546 C32.326,18.546 32.374,18.54 32.42,18.534 C32.756,20.74 33.274,22.898 33.998,24.89 C30.491,25.283 26.958,25.457 23.432,25.307 C19.688,25.147 15.955,24.624 12.339,23.625 C9.102,22.73 6.156,21.356 3.172,19.917 C7.809,19.457 12.42,18.808 17.082,18.551 Z M41.047,69.104 C40.317,73.816 39.756,78.574 38.142,83.081 C37.938,82.961 37.678,82.929 37.407,83.06 C32.686,85.347 27.553,86.057 22.353,85.566 C17.462,85.106 12.956,83.374 8.252,82.175 C8.286,82.082 8.301,81.973 8.29,81.848 C7.375,71.358 6.46,60.869 5.545,50.38 C5.093,45.194 4.647,40.01 4.18,34.826 C3.776,30.333 3.525,25.74 2.81,21.268 C8.453,25.044 15.928,26.498 22.504,26.887 C26.893,27.146 31.3,26.881 35.656,26.318 C37.839,26.035 40.012,25.678 42.174,25.268 C44.07,24.907 46.195,24.682 48.008,23.954 C47.551,25.969 47.408,28.14 47.098,30.132 L45.884,37.925 C45.076,43.12 44.266,48.317 43.461,53.513 C42.658,58.711 41.853,63.908 41.047,69.104 Z M47.447,42.439 C49.738,41.596 53.406,42.402 54.034,45.156 C54.551,47.414 53.832,50.321 53.537,52.578 C53.235,54.893 52.956,57.396 51.061,59.005 C49.038,60.723 46.41,60.619 44.129,59.569 C44.421,57.692 44.712,55.815 45.005,53.939 C45.607,50.07 46.207,46.2 46.807,42.331 C46.968,42.472 47.191,42.534 47.447,42.439 Z M59.634,52.145 C59.219,56.23 58.253,61.079 54.55,63.467 C51.286,65.571 46.992,65.318 43.357,64.533 C43.556,63.252 43.754,61.971 43.955,60.69 C46.029,62.088 48.741,62.197 50.962,60.942 C54.02,59.217 54.662,56.009 55.096,52.788 C55.482,49.921 56.723,45.418 54.688,42.907 C53,40.826 49.45,39.731 47.012,41.011 C47.149,40.124 47.288,39.237 47.425,38.349 C47.48,37.997 47.534,37.644 47.589,37.292 C51.656,36.65 55.88,36.246 58.15,40.51 C59.99,43.972 60.02,48.344 59.634,52.145 Z" id="Shape"></path>
        </g>
    </g>
</svg>