<?xml version="1.0" encoding="UTF-8"?>
<svg width="76px" height="79px" viewBox="0 0 76 79" version="1.1" xmlns="http://www.w3.org/2000/svg" xmlns:xlink="http://www.w3.org/1999/xlink">
    <!-- Generator: Sketch 60 (88103) - https://sketch.com -->
    <title>noun_Breakfast_43514</title>
    <desc>Created with Sketch.</desc>
    <g id="Page-1" stroke="none" stroke-width="1" fill="none" fill-rule="evenodd">
        <g id="Desktop" transform="translate(-609.000000, -688.000000)" fill="#FFFFFF" fill-rule="nonzero">
            <g id="cards" transform="translate(81.000000, 627.000000)">
                <g id="card" transform="translate(466.000000, 0.000000)">
                    <g id="noun_Breakfast_43514" transform="translate(62.000000, 61.000000)">
                        <path d="M74.4519359,6.50148328 L73.4597437,6.50148328 L73.4597437,5.76329678 C73.4597437,4.27287979 72.2537547,3.06070909 70.7728838,3.06070909 L61.1092638,3.06070909 C55.6997658,2.62534582 50.8801727,0.715365043 49.5319432,0.141317512 L49.440316,0.105329822 C49.1471088,0.0351099408 48.8364488,0 48.5161898,0 L41.8780141,0 C41.0245717,0 40.3308226,0.697810073 40.3308226,1.55624813 L40.3308226,6.50148328 L38.7146925,6.50148328 C37.8612502,6.50148328 37.167501,7.19929336 37.167501,8.05773141 L37.167501,10.7603191 L38.9860837,10.7603191 L43.7786249,52.2049709 C40.1929454,51.011233 36.5008037,50.407342 32.7973178,50.407342 C26.4122078,50.407342 20.0288431,52.2242814 14.3366096,55.6624224 C14.2013503,55.7458085 14.0844165,55.8467496 13.9936619,55.9564681 C13.9098884,56.0486317 13.8392045,56.1565948 13.7755018,56.2829906 L13.7467046,56.3382887 C13.6472236,56.5629923 13.6035916,56.8192949 13.6201718,57.0755975 C10.6374868,58.8442607 7.91484867,60.9894781 5.74022872,63.2847905 C5.31088963,63.743853 5.21315391,64.4293746 5.48367244,64.9876226 C3.72268406,66.7861294 2.30377073,68.7171761 1.37266339,70.5832694 C1.23129564,70.8755597 1.19028154,71.2099819 1.25311165,71.5338711 C0.421485326,72.9716232 0,74.3751431 0,75.7058098 C0,76.8565381 0.318513756,77.6860105 0.970376154,78.2398698 C1.5585358,78.7498417 2.39190741,78.9982445 3.51761356,78.9982445 C5.04386166,78.9982445 7.05355257,78.5312823 8.83548432,78.0651978 C9.21770082,78.3206226 9.71423322,78.3934758 10.1479355,78.2468918 L10.8381941,78.0107774 C11.2718964,77.8624379 11.7204336,77.7105874 12.1750792,77.5508372 L13.4212098,77.1216182 L13.4465163,77.1224959 C13.6009737,77.1224959 13.7615395,77.0952857 13.9282138,77.0391098 C15.2118679,76.5554704 16.5234465,76.0911414 17.8280439,75.6584114 C17.8873835,75.6970323 17.9484683,75.7286313 18.0095531,75.7532082 L18.0540578,75.7777852 C18.1421945,75.8172839 18.2399302,75.8471273 18.3490102,75.8673155 L18.422312,75.8892592 C18.4833969,75.8962812 18.5453543,75.9024255 18.6090571,75.9024255 C18.6395995,75.9024255 18.6701419,75.9015477 18.6727598,75.8989145 L18.73559,75.9094475 L18.767005,75.9068142 C18.8979011,75.8954035 19.0139622,75.872582 19.1221697,75.8365943 C24.1459606,74.124107 28.6199881,73.2920014 32.7981904,73.2920014 C37.3725715,73.2920014 42.157259,74.2540138 47.8564736,76.319356 C48.1767327,76.4334633 48.5694208,76.4062531 48.7989253,76.340422 L48.8582648,76.3202338 C48.8931704,76.3097008 48.9245855,76.2982901 48.9533826,76.2833683 C49.0458825,76.2359699 49.1287834,76.190327 49.2230285,76.1280068 C49.2614247,76.0981634 49.2998209,76.0700754 49.3364718,76.0393542 C50.5651495,76.4650623 51.8767281,76.9460685 53.3392734,77.5069498 L54.6360171,77.5473262 L54.7049557,77.5288935 C54.7224085,77.53416 54.7398613,77.5394265 54.7555688,77.5438152 C55.4650255,77.7913403 56.1491756,78.0283324 56.8097644,78.249525 C57.2617921,78.4004978 57.7443623,78.3258891 58.1152345,78.0678311 C60.6066229,78.720876 62.1991917,79 63.4226335,79 C65.7569467,79 66.9393745,77.8931591 66.9393745,75.7075653 C66.9393745,74.3760208 66.5178891,72.9725009 65.6862628,71.5356266 C65.7534561,71.1976934 65.712442,70.8694155 65.5649658,70.5823917 C64.671382,68.7751075 63.3379874,66.9432463 61.6023056,65.1377176 C61.5656547,64.8471829 61.4478483,64.5759586 61.2541221,64.3459885 C60.0961282,63.0012777 58.7583705,61.7004544 57.2696459,60.4742397 C63.3397327,60.3811984 68.2596794,58.5704032 69.3225555,56.0082553 L74.5540348,10.7647078 L76,10.7647078 L76,8.06212015 C75.9991274,7.20017111 75.3053782,6.50148328 74.4519359,6.50148328 Z M41.220339,1.64323842 C41.220339,1.45458221 41.3835543,1.29508197 41.5766046,1.29508197 L48.2517583,1.29508197 C48.4570936,1.29508197 48.6659389,1.31909276 48.8300317,1.34224602 C49.2503549,1.52489953 52.0320346,2.68770777 55.8728585,3.53237305 C56.2300016,3.61126564 57.7998517,3.80077937 59.3188068,3.98429041 C60.3823386,4.11291964 61.3862002,4.23383112 61.6942032,4.28442528 L70.6324332,4.28442528 C71.4616721,4.28442528 72.1355932,4.94300694 72.1355932,5.75337109 L72.1355932,6.47540984 L41.220339,6.47540984 L41.220339,1.64323842 Z M3.58371658,77.704918 C2.75416083,77.704918 2.17937167,77.5535154 1.82269846,77.2389242 C1.46244957,76.9352123 1.28813559,76.4093828 1.28813559,75.630611 C1.28813559,74.6705188 1.57955281,73.6270191 2.15523589,72.5245902 L7.72881356,77.029499 C5.80599631,77.5027456 4.55093567,77.704918 3.58371658,77.704918 Z M11.3404052,75.7438558 C10.676972,75.9700121 10.0374984,76.1878231 9.42776782,76.3989579 C9.36332474,76.4231591 9.28979354,76.4056341 9.23196002,76.3597352 L2.66454983,71.0821999 C2.5827567,71.0129343 2.55218755,70.9002734 2.59680198,70.8159864 C3.36846648,69.2504178 4.5540538,67.6072383 6.03376592,66.0491803 L11.5932203,75.6537271 C11.50647,75.6829355 11.4213721,75.7129784 11.3404052,75.7438558 Z M13.1657975,75.1023918 C13.0734996,75.1388526 12.949581,75.0913688 12.8974497,75.0031845 L6.47333938,64.1098768 C6.42120811,64.0191487 6.43231806,63.9055266 6.50068693,63.8343008 C8.46458284,61.7840153 10.900224,59.8668543 13.5589186,58.2786885 L16.7457627,73.8457652 C15.4450449,74.2824472 14.2733733,74.6945393 13.1657975,75.1023918 Z M48.0477608,74.9357003 C48.022325,75.0667078 47.8688333,75.1479324 47.7407773,75.1016431 C41.8703768,72.9950433 36.9226808,72.0133609 32.1705771,72.0133609 C27.8333396,72.0133609 23.2022751,72.8631625 18.0168862,74.6090551 C17.8791822,74.6527242 17.7370927,74.5697528 17.7107799,74.4431123 L14.1734535,57.0994731 C14.1550345,57.0007808 14.2023977,56.8933547 14.2830905,56.8426985 C19.8158092,53.5465511 26.001087,51.8032787 32.1705771,51.8032787 C40.6494598,51.8032787 47.3215257,54.9998604 51.4245786,57.6820195 C51.5043943,57.7344225 51.5421095,57.831368 51.5184279,57.9326804 L48.0477608,74.9357003 Z M65.6949153,75.6307917 C65.6949153,77.1435345 65.0729211,77.704918 63.3999713,77.704918 C62.4115726,77.704918 61.1211134,77.4963264 59.2542373,77.0319833 L64.8280556,72.5245902 C65.4035789,73.6274051 65.6949153,74.6721771 65.6949153,75.6307917 Z M64.3874963,70.6028289 C64.4302012,70.6920143 64.4005692,70.8054442 64.3125448,70.870385 L57.4048056,76.352254 C57.3307257,76.4059384 57.2566457,76.4241218 57.1799511,76.3981455 L56.7093255,76.2405558 C56.2814047,76.0976861 55.8421541,75.950487 55.3898305,75.7963608 L61.1305923,66.0491803 C62.5241672,67.5436845 63.6188077,69.0754214 64.3874963,70.6028289 Z M60.490252,65.5976681 C60.5505788,65.6713602 60.5591969,65.7853258 60.5126591,65.8693005 L54.3041736,76.4098361 L53.9654819,76.4098361 C52.8658113,76.0002453 51.5739568,75.5238175 50.2372881,75.0645275 L53.4061667,59.5737705 C56.1493107,61.3295267 58.5330795,63.3569153 60.490252,65.5976681 Z M68.3500297,55.4876896 C68.3297596,55.7105037 68.2504418,55.9333178 68.1103136,56.152664 C66.9461036,58.1033709 62.0319216,59.5737705 56.6797287,59.5737705 C56.3175105,59.5737705 55.9588175,59.5659677 55.6045311,59.552963 C54.7946076,58.9686178 53.9802776,58.4241539 53.1826924,57.9343097 C53.1747607,57.8779559 53.1624223,57.8242031 53.1509653,57.7730512 L53.0998493,57.599655 C53.0786979,57.5424343 53.0575465,57.4886815 53.0328698,57.4444655 C53.0029053,57.3872447 52.965009,57.32829 52.9306379,57.2788721 C52.8997921,57.2285872 52.8698275,57.1887061 52.8204742,57.1280175 C52.7385124,57.0378514 52.6442123,56.9355477 52.5225916,56.8661892 C50.0743137,55.2848161 47.4506551,53.9826108 44.7221208,52.9933857 L39.9322034,11.6557377 L73.4237288,11.6557377 L68.3500297,55.4876896 Z M74.7118644,9.06557377 L38.6440678,9.06557377 L38.6440678,8.01874642 C38.6440678,7.88177836 38.8012372,7.7704918 38.9946766,7.7704918 L74.3612556,7.7704918 C74.5512407,7.7704918 74.7118644,7.88422421 74.7118644,8.01874642 C74.7118644,8.01813496 74.7118644,9.06557377 74.7118644,9.06557377 Z" id="Shape"></path>
                    </g>
                </g>
            </g>
        </g>
    </g>
</svg>