<?xml version="1.0" encoding="UTF-8"?>
<svg width="44px" height="86px" viewBox="0 0 44 86" version="1.1" xmlns="http://www.w3.org/2000/svg" xmlns:xlink="http://www.w3.org/1999/xlink">
    <!-- Generator: Sketch 60 (88103) - https://sketch.com -->
    <title>noun_Social Media_1873432</title>
    <desc>Created with Sketch.</desc>
    <g id="Page-1" stroke="none" stroke-width="1" fill="none" fill-rule="evenodd">
        <g id="Desktop" transform="translate(-392.000000, -684.000000)" fill="#FFFFFF" fill-rule="nonzero">
            <g id="cards" transform="translate(81.000000, 627.000000)">
                <g id="card" transform="translate(233.000000, 0.000000)">
                    <g id="noun_Social-Media_1873432" transform="translate(78.000000, 57.000000)">
                        <g id="Group">
                            <path d="M37.1994419,85.7160964 L6.80055814,85.7160964 C3.27544186,85.7160964 0.405209302,82.810747 0.405209302,79.2412289 L0.405209302,6.75877108 C0.405209302,3.18925301 3.27544186,0.283903614 6.80055814,0.283903614 L37.1984186,0.283903614 C40.7235349,0.283903614 43.5937677,3.18925301 43.5937677,6.75877108 L43.5937677,79.2412289 C43.5947907,82.810747 40.7255814,85.7160964 37.1994419,85.7160964 Z M6.80055814,1.32004819 C3.83823256,1.32004819 1.42846512,3.75913253 1.42846512,6.75877108 L1.42846512,79.2412289 C1.42846512,82.2408675 3.83823256,84.6799518 6.80055814,84.6799518 L37.1984186,84.6799518 C40.1607442,84.6799518 42.5705116,82.2408675 42.5705116,79.2412289 L42.5705116,6.75877108 C42.5705116,3.75913253 40.1607442,1.32004819 37.1984186,1.32004819 L6.80055814,1.32004819 Z M22.0010233,82.5403133 C20.2052093,82.5392771 18.744,81.0586265 18.744,79.2412289 C18.744,77.421759 20.2052093,75.9421446 22,75.9421446 C23.7968372,75.9421446 25.2580465,77.421759 25.2580465,79.2412289 C25.2580465,81.0586265 23.7968372,82.5392771 22.0010233,82.5403133 Z M22,76.9782892 C20.7690233,76.9782892 19.7672558,77.9926747 19.7672558,79.2412289 C19.7672558,80.4877108 20.7690233,81.5031325 22.0010233,81.5041687 C23.2309767,81.5031325 24.2347907,80.488747 24.2347907,79.2412289 C24.2347907,77.9937108 23.232,76.9782892 22,76.9782892 Z M40.2589767,73.9993735 L3.74102326,73.9993735 L3.74102326,7.03542169 L40.2589767,7.03542169 L40.2589767,73.9993735 Z M4.76427907,72.9632289 L39.2357209,72.9632289 L39.2357209,8.07156627 L4.76427907,8.07156627 L4.76427907,72.9632289 Z M25.9231628,5.68843373 L18.0788837,5.68843373 C17.2551628,5.68843373 16.5859535,5.01079518 16.5859535,4.17773494 C16.5859535,3.34363855 17.2551628,2.666 18.0788837,2.666 L25.9231628,2.666 C26.7448372,2.666 27.4140465,3.34363855 27.4140465,4.17773494 C27.4140465,5.00975904 26.7448372,5.68843373 25.9231628,5.68843373 Z M18.0788837,3.70214458 C17.82,3.70214458 17.6092093,3.91559036 17.6092093,4.17773494 C17.6092093,4.43987952 17.82,4.65228916 18.0788837,4.65228916 L25.9231628,4.65228916 C26.1810233,4.65228916 26.3907907,4.43987952 26.3907907,4.17773494 C26.3907907,3.91559036 26.1810233,3.70214458 25.9231628,3.70214458 L18.0788837,3.70214458 Z" id="Shape"></path>
                            <path d="M12.7446512,41.5038072 L12.7446512,37.7726506 C9.84372093,37.668 7.5147907,35.2465301 7.5147907,32.2821205 L7.5147907,28.5250602 C7.5147907,25.4964096 9.94911628,23.0324578 12.9390698,23.0324578 L31.0619535,23.0324578 C34.0529302,23.0324578 36.4862326,25.4964096 36.4862326,28.5250602 L36.4862326,32.2831566 C36.4862326,35.3128434 34.0529302,37.7767952 31.0619535,37.7767952 L18.7388837,37.7767952 L12.7446512,41.5038072 Z M12.9390698,24.0686024 C10.5129302,24.0686024 8.53804651,26.0683614 8.53804651,28.5250602 L8.53804651,32.2831566 C8.53804651,34.7408916 10.5129302,36.7406506 12.9390698,36.7406506 L13.7689302,36.7406506 L13.7689302,39.653253 L18.4503256,36.7406506 L31.0619535,36.7406506 C33.488093,36.7406506 35.4629767,34.7408916 35.4629767,32.2831566 L35.4629767,28.5250602 C35.4629767,26.0683614 33.488093,24.0686024 31.0619535,24.0686024 L12.9390698,24.0686024 Z" id="Shape"></path>
                            <path d="M20.7045581,26.7739759 L33.5576744,26.7739759 C33.7357209,26.7739759 33.8789767,26.9407952 33.8789767,27.1459518 C33.8789767,27.3521446 33.7346977,27.52 33.5576744,27.52 L20.7045581,27.52 C20.5265116,27.52 20.3832558,27.3521446 20.3832558,27.1459518 C20.3832558,26.9407952 20.5275349,26.7739759 20.7045581,26.7739759 Z" id="Path"></path>
                            <path d="M20.7045581,28.4328434 L30.7017674,28.4328434 C30.879814,28.4328434 31.0230698,28.5996627 31.0230698,28.8058554 C31.0230698,29.011012 30.8787907,29.1778313 30.7017674,29.1778313 L20.7045581,29.1778313 C20.5265116,29.1778313 20.3832558,29.011012 20.3832558,28.8058554 C20.3832558,28.5996627 20.5275349,28.4328434 20.7045581,28.4328434 Z" id="Path"></path>
                            <path d="M20.7045581,30.0917108 L33.5576744,30.0917108 C33.7357209,30.0917108 33.8789767,30.2585301 33.8789767,30.4636867 C33.8789767,30.6698795 33.7346977,30.8366988 33.5576744,30.8366988 L20.7045581,30.8366988 C20.5265116,30.8366988 20.3832558,30.6698795 20.3832558,30.4636867 C20.3832558,30.2585301 20.5275349,30.0917108 20.7045581,30.0917108 Z" id="Path"></path>
                            <path d="M20.7045581,31.748506 L29.2722791,31.748506 C29.4503256,31.748506 29.5935814,31.9163614 29.5935814,32.1225542 C29.5935814,32.3277108 29.4493023,32.4945301 29.2722791,32.4945301 L20.7045581,32.4945301 C20.5265116,32.4945301 20.3832558,32.3277108 20.3832558,32.1225542 C20.3832558,31.9163614 20.5275349,31.748506 20.7045581,31.748506 Z" id="Path"></path>
                            <path d="M20.7045581,33.4073735 L30.7017674,33.4073735 C30.879814,33.4073735 31.0230698,33.5741928 31.0230698,33.7803855 C31.0230698,33.9865783 30.8787907,34.1533976 30.7017674,34.1533976 L20.7045581,34.1533976 C20.5265116,34.1533976 20.3832558,33.9865783 20.3832558,33.7803855 C20.3832558,33.5741928 20.5275349,33.4073735 20.7045581,33.4073735 Z" id="Path"></path>
                            <path d="M14.511814,32.1121928 C12.6065116,32.1121928 11.0562791,30.5413976 11.0562791,28.6120964 C11.0562791,26.6827952 12.6065116,25.112 14.511814,25.112 C16.4181395,25.112 17.9693953,26.6827952 17.9693953,28.6120964 C17.9693953,30.5413976 16.4181395,32.1121928 14.511814,32.1121928 Z M14.511814,26.1481446 C13.1703256,26.1481446 12.0795349,27.2526747 12.0795349,28.6120964 C12.0795349,29.9715181 13.1703256,31.0760482 14.511814,31.0760482 C15.8543256,31.0760482 16.9461395,29.9715181 16.9461395,28.6120964 C16.9461395,27.2526747 15.8533023,26.1481446 14.511814,26.1481446 Z" id="Shape"></path>
                            <path d="M14.6857674,35.6982892 C12.8541395,35.6982892 10.4648372,35.2434217 9.76083721,33.9596386 C9.59097674,33.6498313 9.56334884,33.3068675 9.68102326,32.9659759 C10.0350698,31.9433012 11.7009302,31.1558313 12.399814,30.8646747 L12.6709767,30.7527711 L12.9053023,30.9320241 C13.8364651,31.6511084 15.1912558,31.6500723 16.1193488,30.9330602 L16.3536744,30.7527711 L16.6248372,30.8646747 C17.6255814,31.2812048 19.8890233,32.4106024 19.2914419,33.9026506 C18.7593488,35.2268434 16.5644651,35.6982892 14.6857674,35.6982892 Z M12.5348837,31.9329398 C11.5515349,32.3784819 10.7748837,32.938 10.6469767,33.3079036 C10.6234419,33.3762892 10.6316279,33.4135904 10.6551628,33.4560723 C11.0317209,34.1430361 12.7651163,34.6621446 14.6847442,34.6621446 C16.5368372,34.6621446 18.0747907,34.1782651 18.3408372,33.5130602 C18.488186,33.1473012 17.6859535,32.4748434 16.4866977,31.9339759 C15.3089302,32.6976145 13.7146977,32.6976145 12.5348837,31.9329398 Z" id="Shape"></path>
                            <path d="M31.2553488,61.8143133 L25.2621395,58.0852289 L12.9390698,58.0852289 C9.94911628,58.0852289 7.5147907,55.6212771 7.5147907,52.5926265 L7.5147907,48.8345301 C7.5147907,45.8058795 9.94911628,43.3419277 12.9390698,43.3419277 L31.0619535,43.3419277 C34.0529302,43.3419277 36.4862326,45.8058795 36.4862326,48.8345301 L36.4862326,52.5926265 C36.4862326,55.5549639 34.1583256,57.9774699 31.2563721,58.0821205 L31.2563721,61.8143133 L31.2553488,61.8143133 Z M12.9390698,44.3791084 C10.5129302,44.3791084 8.53804651,46.3788675 8.53804651,48.8355663 L8.53804651,52.5936627 C8.53804651,55.0503614 10.5129302,57.0501205 12.9390698,57.0501205 L25.5506977,57.0501205 L30.232093,59.963759 L30.232093,57.0501205 L31.0619535,57.0501205 C33.488093,57.0501205 35.4629767,55.0503614 35.4629767,52.5936627 L35.4629767,48.8355663 C35.4629767,46.3788675 33.488093,44.3791084 31.0619535,44.3791084 L12.9390698,44.3791084 Z" id="Shape"></path>
                            <path d="M23.2954419,54.4628675 L13.2982326,54.4628675 C13.120186,54.4628675 12.9769302,54.2960482 12.9769302,54.0898554 C12.9769302,53.8846988 13.1212093,53.7168434 13.2982326,53.7168434 L23.2954419,53.7168434 C23.4734884,53.7168434 23.6167442,53.8846988 23.6167442,54.0898554 C23.6167442,54.2960482 23.4724651,54.4628675 23.2954419,54.4628675 Z" id="Path"></path>
                            <path d="M23.2954419,52.804 L14.7277209,52.804 C14.5496744,52.804 14.4064186,52.6371807 14.4064186,52.4320241 C14.4064186,52.2258313 14.5506977,52.059012 14.7277209,52.059012 L23.2954419,52.059012 C23.4734884,52.059012 23.6167442,52.2258313 23.6167442,52.4320241 C23.6167442,52.6371807 23.4724651,52.804 23.2954419,52.804 Z" id="Path"></path>
                            <path d="M29.488186,52.4206265 C27.5828837,52.4206265 26.0326512,50.8508675 26.0326512,48.9215663 C26.0326512,46.9912289 27.5828837,45.4204337 29.488186,45.4204337 C31.3945116,45.4204337 32.9457674,46.9912289 32.9457674,48.9215663 C32.9457674,50.8519036 31.3955349,52.4206265 29.488186,52.4206265 Z M29.488186,46.4565783 C28.1466977,46.4565783 27.055907,47.5621446 27.055907,48.9215663 C27.055907,50.2799518 28.1466977,51.3844819 29.488186,51.3844819 C30.8306977,51.3844819 31.9225116,50.2799518 31.9225116,48.9215663 C31.9225116,47.5631807 30.8306977,46.4565783 29.488186,46.4565783 Z" id="Shape"></path>
                            <path d="M29.3162791,56.0067229 C27.4375814,56.0067229 25.2416744,55.5352771 24.7106047,54.2121205 C24.112,52.718 26.3764651,51.5906747 27.3772093,51.1741446 L27.6473488,51.062241 L27.8806512,51.241494 C28.8148837,51.9595422 30.1625116,51.9595422 31.0977674,51.241494 L31.3310698,51.062241 L31.6022326,51.1741446 C32.3021395,51.4642651 33.9659535,52.2506988 34.32,53.2744096 C34.4376744,53.6153012 34.4110698,53.9593012 34.2412093,54.2680723 C33.5351628,55.5518554 31.1468837,56.0067229 29.3162791,56.0067229 Z M27.5122791,52.2424096 C26.3130233,52.782241 25.5128372,53.4557349 25.6591628,53.8225301 C25.9252093,54.4877349 27.464186,54.9695422 29.3162791,54.9695422 C31.235907,54.9695422 32.9672558,54.4514699 33.3458605,53.764506 C33.3693953,53.7220241 33.3775814,53.685759 33.3540465,53.6163373 C33.2251163,53.2453976 32.4484651,52.6858795 31.4661395,52.2413735 C30.2842791,53.0091566 28.6931163,53.0070843 27.5122791,52.2424096 Z" id="Shape"></path>
                            <path d="M10.4423256,47.0844819 L23.2954419,47.0844819 C23.4734884,47.0844819 23.6167442,47.2502651 23.6167442,47.4564578 C23.6167442,47.6626506 23.4724651,47.8294699 23.2954419,47.8294699 L10.4423256,47.8294699 C10.2642791,47.8294699 10.1210233,47.6626506 10.1210233,47.4564578 C10.1210233,47.2502651 10.2642791,47.0844819 10.4423256,47.0844819 Z" id="Path"></path>
                            <path d="M23.6167442,49.1153253 C23.6167442,49.3204819 23.4724651,49.4883373 23.2954419,49.4883373 L13.2982326,49.4883373 C13.120186,49.4883373 12.9769302,49.3204819 12.9769302,49.1153253 C12.9769302,48.9091325 13.1212093,48.7423133 13.2982326,48.7423133 L23.2954419,48.7423133 C23.4724651,48.7423133 23.6167442,48.9091325 23.6167442,49.1153253 Z" id="Path"></path>
                            <path d="M10.4423256,50.4001446 L23.2954419,50.4001446 C23.4734884,50.4001446 23.6167442,50.5669639 23.6167442,50.7731566 C23.6167442,50.9783133 23.4724651,51.1451325 23.2954419,51.1451325 L10.4423256,51.1451325 C10.2642791,51.1451325 10.1210233,50.9783133 10.1210233,50.7731566 C10.1210233,50.5669639 10.2642791,50.4001446 10.4423256,50.4001446 Z" id="Path"></path>
                        </g>
                    </g>
                </g>
            </g>
        </g>
    </g>
</svg>