<?xml version="1.0" encoding="UTF-8"?>
<svg width="61px" height="85px" viewBox="0 0 61 85" version="1.1" xmlns="http://www.w3.org/2000/svg" xmlns:xlink="http://www.w3.org/1999/xlink">
    <!-- Generator: Sketch 60 (88103) - https://sketch.com -->
    <title>noun_Shower_1305815</title>
    <desc>Created with Sketch.</desc>
    <g id="Page-1" stroke="none" stroke-width="1" fill="none" fill-rule="evenodd">
        <g id="Desktop" transform="translate(-850.000000, -685.000000)" fill="#FFFFFF" fill-rule="nonzero">
            <g id="cards" transform="translate(81.000000, 627.000000)">
                <g id="card" transform="translate(699.000000, 0.000000)">
                    <g id="noun_Shower_1305815" transform="translate(70.000000, 58.000000)">
                        <path d="M39.9442145,20.7536789 C39.8209174,20.7536789 39.6976203,20.7058295 39.6122607,20.6197007 C39.5174168,20.524002 39.4699948,20.4091635 39.4699948,20.2751853 C39.4699948,20.150777 39.5183652,20.0263687 39.6122607,19.9402398 C39.7829798,19.7679822 40.0864804,19.7584123 40.2761683,19.9402398 C40.3710122,20.0359385 40.4174858,20.1603469 40.4174858,20.2751853 C40.4174858,20.3995936 40.3700638,20.524002 40.2847043,20.6101308 C40.1813244,20.7058295 40.0684601,20.7536789 39.9442145,20.7536789 Z M40.4184342,26.9492134 L40.4184342,26.7702568 C40.4184342,26.5061284 40.2059838,26.2917633 39.9442145,26.2917633 C39.6824452,26.2917633 39.4699948,26.5061284 39.4699948,26.7702568 L39.4699948,26.9492134 C39.4699948,27.2133419 39.6824452,27.427707 39.9442145,27.427707 C40.2059838,27.427707 40.4184342,27.2133419 40.4184342,26.9492134 Z M40.4184342,33.6174996 L40.4184342,33.2595864 C40.4184342,32.995458 40.2059838,32.7810929 39.9442145,32.7810929 C39.6824452,32.7810929 39.4699948,32.995458 39.4699948,33.2595864 L39.4699948,33.6174996 C39.4699948,33.8816281 39.6824452,34.0959932 39.9442145,34.0959932 C40.2059838,34.0959932 40.4184342,33.882585 40.4184342,33.6174996 Z M40.4184342,40.2867428 L40.4184342,39.749873 C40.4184342,39.4857446 40.2059838,39.2713795 39.9442145,39.2713795 C39.6824452,39.2713795 39.4699948,39.4857446 39.4699948,39.749873 L39.4699948,40.2867428 C39.4699948,40.5508712 39.6824452,40.7652363 39.9442145,40.7652363 C40.2059838,40.7652363 40.4184342,40.5518282 40.4184342,40.2867428 Z M40.4184342,46.955029 L40.4184342,46.2392026 C40.4184342,45.9750742 40.2059838,45.7607091 39.9442145,45.7607091 C39.6824452,45.7607091 39.4699948,45.9750742 39.4699948,46.2392026 L39.4699948,46.955029 C39.4699948,47.2191574 39.6824452,47.4335225 39.9442145,47.4335225 C40.2059838,47.4335225 40.4184342,47.2201144 40.4184342,46.955029 Z M40.4184342,53.6242721 L40.4184342,52.7294892 C40.4184342,52.4653607 40.2059838,52.2509956 39.9442145,52.2509956 C39.6824452,52.2509956 39.4699948,52.4653607 39.4699948,52.7294892 L39.4699948,53.6242721 C39.4699948,53.8884006 39.6824452,54.1027657 39.9442145,54.1027657 C40.2059838,54.1027657 40.4184342,53.8893576 40.4184342,53.6242721 Z M40.4184342,60.2935153 L40.4184342,59.2197758 C40.4184342,58.9556473 40.2059838,58.7412822 39.9442145,58.7412822 C39.6824452,58.7412822 39.4699948,58.9556473 39.4699948,59.2197758 L39.4699948,60.2935153 C39.4699948,60.5576438 39.6824452,60.7720089 39.9442145,60.7720089 C40.2059838,60.7720089 40.4184342,60.5576438 40.4184342,60.2935153 Z M40.4184342,66.9627585 L40.4184342,65.7091054 C40.4184342,65.4449769 40.2059838,65.2306118 39.9442145,65.2306118 C39.6824452,65.2306118 39.4699948,65.4449769 39.4699948,65.7091054 L39.4699948,66.9627585 C39.4699948,67.2268869 39.6824452,67.441252 39.9442145,67.441252 C40.2059838,67.441252 40.4184342,67.2268869 40.4184342,66.9627585 Z M40.4184342,73.6310447 L40.4184342,72.1993919 C40.4184342,71.9352635 40.2059838,71.7208984 39.9442145,71.7208984 C39.6824452,71.7208984 39.4699948,71.9352635 39.4699948,72.1993919 L39.4699948,73.6310447 C39.4699948,73.8951731 39.6824452,74.1095382 39.9442145,74.1095382 C40.2059838,74.1095382 40.4184342,73.8961301 40.4184342,73.6310447 Z M40.4184342,80.3002878 L40.4184342,78.6896785 C40.4184342,78.4255501 40.2059838,78.211185 39.9442145,78.211185 C39.6824452,78.211185 39.4699948,78.4255501 39.4699948,78.6896785 L39.4699948,80.3012448 C39.4699948,80.5653733 39.6824452,80.7797384 39.9442145,80.7797384 C40.2059838,80.7797384 40.4184342,80.5653733 40.4184342,80.3002878 Z M44.0993275,20.6197007 C44.1941714,20.5335718 44.2406449,20.4091635 44.2406449,20.2847552 C44.2406449,20.150777 44.193223,20.0263687 44.1078634,19.9402398 C43.9276599,19.7584123 43.6137265,19.7584123 43.4344715,19.9402398 C43.3491119,20.0263687 43.2922056,20.150777 43.2922056,20.2847552 C43.2922056,20.4091635 43.3500604,20.5335718 43.4344715,20.6197007 C43.5188826,20.7058295 43.6431281,20.7632488 43.7664252,20.7632488 C43.8897224,20.7632488 44.0130195,20.7058295 44.0993275,20.6197007 Z M44.2453871,27.2573633 L44.2453871,27.0382132 C44.2453871,26.7740848 44.0329367,26.5597197 43.7711674,26.5597197 C43.5093982,26.5597197 43.2969477,26.7740848 43.2969477,27.0382132 L43.2969477,27.2573633 C43.2969477,27.5214917 43.5093982,27.7358568 43.7711674,27.7358568 C44.0329367,27.7358568 44.2453871,27.5214917 44.2453871,27.2573633 Z M44.2453871,34.2337993 L44.2453871,33.7964562 C44.2453871,33.5323278 44.0329367,33.3179626 43.7711674,33.3179626 C43.5093982,33.3179626 43.2969477,33.5323278 43.2969477,33.7964562 L43.2969477,34.2337993 C43.2969477,34.4979278 43.5093982,34.7122929 43.7711674,34.7122929 C44.0329367,34.7122929 44.2453871,34.4988847 44.2453871,34.2337993 Z M44.2453871,41.2111923 L44.2453871,40.5546992 C44.2453871,40.2905707 44.0329367,40.0762056 43.7711674,40.0762056 C43.5093982,40.0762056 43.2969477,40.2905707 43.2969477,40.5546992 L43.2969477,41.2111923 C43.2969477,41.4753208 43.5093982,41.6896859 43.7711674,41.6896859 C44.0329367,41.6896859 44.2453871,41.4762778 44.2453871,41.2111923 Z M44.2453871,48.1885854 L44.2453871,47.3138991 C44.2453871,47.0497707 44.0329367,46.8354056 43.7711674,46.8354056 C43.5093982,46.8354056 43.2969477,47.0497707 43.2969477,47.3138991 L43.2969477,48.1885854 C43.2969477,48.4527138 43.5093982,48.6670789 43.7711674,48.6670789 C44.0329367,48.6670789 44.2453871,48.4527138 44.2453871,48.1885854 Z M44.2453871,55.1659784 L44.2453871,54.0721421 C44.2453871,53.8080137 44.0329367,53.5936486 43.7711674,53.5936486 C43.5093982,53.5936486 43.2969477,53.8080137 43.2969477,54.0721421 L43.2969477,55.1659784 C43.2969477,55.4301068 43.5093982,55.6444719 43.7711674,55.6444719 C44.0329367,55.6444719 44.2453871,55.4301068 44.2453871,55.1659784 Z M44.2453871,62.1433714 L44.2453871,60.8313421 C44.2453871,60.5672136 44.0329367,60.3528485 43.7711674,60.3528485 C43.5093982,60.3528485 43.2969477,60.5672136 43.2969477,60.8313421 L43.2969477,62.1433714 C43.2969477,62.4074998 43.5093982,62.6218649 43.7711674,62.6218649 C44.0329367,62.6218649 44.2453871,62.4074998 44.2453871,62.1433714 Z M44.2453871,69.1207644 L44.2453871,67.588628 C44.2453871,67.3244996 44.0329367,67.1101345 43.7711674,67.1101345 C43.5093982,67.1101345 43.2969477,67.3244996 43.2969477,67.588628 L43.2969477,69.1207644 C43.2969477,69.3848929 43.5093982,69.599258 43.7711674,69.599258 C44.0329367,69.599258 44.2453871,69.3848929 44.2453871,69.1207644 Z M44.2453871,76.0972004 L44.2453871,74.347828 C44.2453871,74.0836996 44.0329367,73.8693345 43.7711674,73.8693345 C43.5093982,73.8693345 43.2969477,74.0836996 43.2969477,74.347828 L43.2969477,76.0972004 C43.2969477,76.3613289 43.5093982,76.575694 43.7711674,76.575694 C44.0329367,76.575694 44.2453871,76.3613289 44.2453871,76.0972004 Z M44.2453871,83.0745935 L44.2453871,81.105114 C44.2453871,80.8409855 44.0329367,80.6266204 43.7711674,80.6266204 C43.5093982,80.6266204 43.2969477,80.8409855 43.2969477,81.105114 L43.2969477,83.0745935 C43.2969477,83.3387219 43.5093982,83.553087 43.7711674,83.553087 C44.0329367,83.553087 44.2453871,83.3387219 44.2453871,83.0745935 Z M56.8548888,19.8158315 C56.9506812,19.7201328 56.9971547,19.6052943 56.9971547,19.4713162 C56.9971547,19.3469078 56.9497327,19.2224995 56.8643732,19.1363707 C56.6841697,18.9545431 56.3617003,18.9545431 56.1805484,19.1363707 C56.0951888,19.2320694 56.0477669,19.3469078 56.0477669,19.4713162 C56.0477669,19.5957245 56.0951888,19.7201328 56.1805484,19.8062616 C56.2763407,19.9019604 56.3986894,19.9498097 56.5219865,19.9498097 C56.6452837,19.9498097 56.7704777,19.9019604 56.8548888,19.8158315 Z M57,26.5913003 L57,26.4123437 C57,26.1482152 56.7875496,25.9338501 56.5257803,25.9338501 C56.264011,25.9338501 56.0515606,26.1482152 56.0515606,26.4123437 L56.0515606,26.5913003 C56.0515606,26.8554287 56.264011,27.0697938 56.5257803,27.0697938 C56.7875496,27.0697938 57,26.8554287 57,26.5913003 Z M57,33.7074564 L57,33.3495432 C57,33.0854148 56.7875496,32.8710497 56.5257803,32.8710497 C56.264011,32.8710497 56.0515606,33.0854148 56.0515606,33.3495432 L56.0515606,33.7074564 C56.0515606,33.9715848 56.264011,34.18595 56.5257803,34.18595 C56.7875496,34.18595 57,33.9715848 57,33.7074564 Z M57,40.8236126 L57,40.2867428 C57,40.0226143 56.7875496,39.8082492 56.5257803,39.8082492 C56.264011,39.8082492 56.0515606,40.0226143 56.0515606,40.2867428 L56.0515606,40.8236126 C56.0515606,41.087741 56.264011,41.3021061 56.5257803,41.3021061 C56.7875496,41.3021061 57,41.088698 57,40.8236126 Z M57,47.9407257 L57,47.2248993 C57,46.9607709 56.7875496,46.7464058 56.5257803,46.7464058 C56.264011,46.7464058 56.0515606,46.9607709 56.0515606,47.2248993 L56.0515606,47.9407257 C56.0515606,48.2048541 56.264011,48.4192192 56.5257803,48.4192192 C56.7875496,48.4192192 57,48.2048541 57,47.9407257 Z M57,55.0559249 L57,54.1620989 C57,53.8979705 56.7875496,53.6836053 56.5257803,53.6836053 C56.264011,53.6836053 56.0515606,53.8979705 56.0515606,54.1620989 L56.0515606,55.0568818 C56.0515606,55.3210103 56.264011,55.5353754 56.5257803,55.5353754 C56.7875496,55.5353754 57,55.3210103 57,55.0559249 Z M57,62.173038 L57,61.0992985 C57,60.83517 56.7875496,60.6208049 56.5257803,60.6208049 C56.264011,60.6208049 56.0515606,60.83517 56.0515606,61.0992985 L56.0515606,62.173038 C56.0515606,62.4371664 56.264011,62.6515315 56.5257803,62.6515315 C56.7875496,62.6515315 57,62.4371664 57,62.173038 Z M57,69.2882372 L57,68.035541 C57,67.7714126 56.7875496,67.5570475 56.5257803,67.5570475 C56.264011,67.5570475 56.0515606,67.7714126 56.0515606,68.035541 L56.0515606,69.2882372 C56.0515606,69.5523656 56.264011,69.7667307 56.5257803,69.7667307 C56.7875496,69.7667307 57,69.5533226 57,69.2882372 Z M57,76.4053503 L57,74.9736976 C57,74.7095691 56.7875496,74.495204 56.5257803,74.495204 C56.264011,74.495204 56.0515606,74.7095691 56.0515606,74.9736976 L56.0515606,76.4053503 C56.0515606,76.6694787 56.264011,76.8838438 56.5257803,76.8838438 C56.7875496,76.8838438 57,76.6694787 57,76.4053503 Z M57,83.5215064 L57,81.9099402 C57,81.6458117 56.7875496,81.4314466 56.5257803,81.4314466 C56.264011,81.4314466 56.0515606,81.6458117 56.0515606,81.9099402 L56.0515606,83.5215064 C56.0515606,83.7856349 56.264011,84 56.5257803,84 C56.7875496,84 57,83.7865919 57,83.5215064 Z M53.0336265,20.6197007 C53.1284704,20.524002 53.174944,20.4091635 53.174944,20.2847552 C53.174944,20.1603469 53.127522,20.0359385 53.0336265,19.9402398 C52.861959,19.7679822 52.5594068,19.7488424 52.3498017,19.9498097 C52.2739265,20.0455084 52.2265046,20.1603469 52.2265046,20.2847552 C52.2265046,20.3995936 52.2739265,20.524002 52.3687705,20.6292706 C52.4636144,20.7153994 52.5774271,20.7632488 52.7007243,20.7632488 C52.8240214,20.7632488 52.9473185,20.7058295 53.0336265,20.6197007 Z M53.0819969,29.3148856 L53.0819969,28.9694132 C53.0819969,28.7052848 52.8695465,28.4909197 52.6077772,28.4909197 C52.3460079,28.4909197 52.1335575,28.7052848 52.1335575,28.9694132 L52.1335575,29.3148856 C52.1335575,29.579014 52.3460079,29.7933791 52.6077772,29.7933791 C52.8695465,29.7933791 53.0819969,29.579014 53.0819969,29.3148856 Z M52.9909467,38.3488439 L52.9909467,37.6588562 C52.9909467,37.3947277 52.7784963,37.1803626 52.516727,37.1803626 C52.2549578,37.1803626 52.0425073,37.3947277 52.0425073,37.6588562 L52.0425073,38.3488439 C52.0425073,38.6129723 52.2549578,38.8273374 52.516727,38.8273374 C52.7784963,38.8273374 52.9909467,38.6139293 52.9909467,38.3488439 Z M52.8998965,47.3837592 L52.8998965,46.3482991 C52.8998965,46.0841707 52.6874461,45.8698056 52.4256768,45.8698056 C52.1639076,45.8698056 51.9514571,46.0841707 51.9514571,46.3482991 L51.9514571,47.3837592 C51.9514571,47.6478876 52.1639076,47.8622527 52.4256768,47.8622527 C52.6874461,47.8622527 52.8998965,47.6478876 52.8998965,47.3837592 Z M52.8088464,56.4177175 L52.8088464,55.0377421 C52.8088464,54.7736137 52.5963959,54.5592485 52.3346267,54.5592485 C52.0728574,54.5592485 51.860407,54.7736137 51.860407,55.0377421 L51.860407,56.4177175 C51.860407,56.681846 52.0728574,56.8962111 52.3346267,56.8962111 C52.5963959,56.8962111 52.8088464,56.681846 52.8088464,56.4177175 Z M52.7177962,65.4526328 L52.7177962,63.7271851 C52.7177962,63.4630566 52.5053457,63.2486915 52.2435765,63.2486915 C51.9818072,63.2486915 51.7693568,63.4630566 51.7693568,63.7271851 L51.7693568,65.4526328 C51.7693568,65.7167613 51.9818072,65.9311264 52.2435765,65.9311264 C52.5053457,65.9311264 52.7177962,65.7167613 52.7177962,65.4526328 Z M52.6257976,74.4875481 L52.6257976,72.416628 C52.6257976,72.1524996 52.4133471,71.9381345 52.1515779,71.9381345 C51.8898086,71.9381345 51.6773582,72.1524996 51.6773582,72.416628 L51.6773582,74.4875481 C51.6773582,74.7516766 51.8898086,74.9660417 52.1515779,74.9660417 C52.4133471,74.9660417 52.6257976,74.7516766 52.6257976,74.4875481 Z M52.5356958,83.5215064 L52.5356958,81.105114 C52.5356958,80.8409855 52.3232454,80.6266204 52.0614761,80.6266204 C51.7997068,80.6266204 51.5872564,80.8409855 51.5872564,81.105114 L51.5872564,83.5215064 C51.5872564,83.7856349 51.7997068,84 52.0614761,84 C52.3232454,84 52.5356958,83.7865919 52.5356958,83.5215064 Z M49.2114158,23.0313082 C49.2967753,22.9356095 49.3441973,22.820771 49.3441973,22.6963627 C49.3441973,22.5719544 49.2967753,22.4571159 49.2028798,22.3518474 C49.0131919,22.1795897 48.7087429,22.1795897 48.5389722,22.3614172 C48.4431799,22.4475461 48.3967063,22.5719544 48.3967063,22.6963627 C48.3967063,22.820771 48.4441283,22.9451794 48.5389722,23.0313082 C48.6243318,23.1270069 48.7476289,23.1748563 48.870926,23.1748563 C48.9942231,23.1748563 49.106139,23.1270069 49.2114158,23.0313082 Z M49.2559924,31.2700102 L49.2559924,31.0403333 C49.2559924,30.7762049 49.043542,30.5618398 48.7817727,30.5618398 C48.5200034,30.5618398 48.307553,30.7762049 48.307553,31.0403333 L48.307553,31.2700102 C48.307553,31.5341387 48.5200034,31.7485038 48.7817727,31.7485038 C49.043542,31.7485038 49.2559924,31.5350957 49.2559924,31.2700102 Z M49.1649422,39.8446147 L49.1649422,39.3843039 C49.1649422,39.1201755 48.9524918,38.9058104 48.6907225,38.9058104 C48.4289533,38.9058104 48.2165028,39.1201755 48.2165028,39.3843039 L48.2165028,39.8446147 C48.2165028,40.1087432 48.4289533,40.3231083 48.6907225,40.3231083 C48.9524918,40.3231083 49.1649422,40.1097002 49.1649422,39.8446147 Z M49.0729436,48.4192192 L49.0729436,47.7282746 C49.0729436,47.4641461 48.8604932,47.249781 48.5987239,47.249781 C48.3369546,47.249781 48.1245042,47.4641461 48.1245042,47.7282746 L48.1245042,48.4192192 C48.1245042,48.6833477 48.3369546,48.8977128 48.5987239,48.8977128 C48.8604932,48.8977128 49.0729436,48.6833477 49.0729436,48.4192192 Z M48.9828419,56.9938238 L48.9828419,56.0732022 C48.9828419,55.8090737 48.7703914,55.5947086 48.5086222,55.5947086 C48.2468529,55.5947086 48.0344025,55.8090737 48.0344025,56.0732022 L48.0344025,56.9938238 C48.0344025,57.2579522 48.2468529,57.4723173 48.5086222,57.4723173 C48.7703914,57.4723173 48.9828419,57.2579522 48.9828419,56.9938238 Z M48.8908432,65.5684283 L48.8908432,64.4171728 C48.8908432,64.1530443 48.6783928,63.9386792 48.4166236,63.9386792 C48.1548543,63.9386792 47.9424039,64.1530443 47.9424039,64.4171728 L47.9424039,65.5684283 C47.9424039,65.8325567 48.1548543,66.0469218 48.4166236,66.0469218 C48.6783928,66.0469218 48.8908432,65.8325567 48.8908432,65.5684283 Z M48.7997931,74.1420758 L48.7997931,72.7621004 C48.7997931,72.4979719 48.5873426,72.2836068 48.3255734,72.2836068 C48.0638041,72.2836068 47.8513537,72.4979719 47.8513537,72.7621004 L47.8513537,74.1420758 C47.8513537,74.4062042 48.0638041,74.6205693 48.3255734,74.6205693 C48.5873426,74.6205693 48.7997931,74.4062042 48.7997931,74.1420758 Z M48.7096913,82.7166803 L48.7096913,81.105114 C48.7096913,80.8409855 48.4972409,80.6266204 48.2354716,80.6266204 C47.9737024,80.6266204 47.7612519,80.8409855 47.7612519,81.105114 L47.7612519,82.7166803 C47.7612519,82.9808087 47.9737024,83.1951738 48.2354716,83.1951738 C48.4972409,83.1951738 48.7096913,82.9808087 48.7096913,82.7166803 Z M36.4454216,23.0313082 C36.5402656,22.9451794 36.5867391,22.820771 36.5867391,22.6963627 C36.5867391,22.5719544 36.5393171,22.4475461 36.4454216,22.3614172 C36.2652181,22.1795897 35.9512847,22.1795897 35.7815141,22.3614172 C35.6866701,22.4475461 35.6392481,22.5719544 35.6392481,22.6963627 C35.6392481,22.820771 35.6876186,22.9451794 35.7729781,23.0313082 C35.867822,23.1270069 35.9901707,23.1748563 36.1134678,23.1748563 C36.236765,23.1748563 36.3600621,23.1270069 36.4454216,23.0313082 Z M36.4966374,31.2700102 L36.4966374,31.0403333 C36.4966374,30.7762049 36.2841869,30.5618398 36.0224177,30.5618398 C35.7606484,30.5618398 35.548198,30.7762049 35.548198,31.0403333 L35.548198,31.2700102 C35.548198,31.5341387 35.7606484,31.7485038 36.0224177,31.7485038 C36.2841869,31.7485038 36.4966374,31.5350957 36.4966374,31.2700102 Z M36.4046387,39.8446147 L36.4046387,39.3843039 C36.4046387,39.1201755 36.1921883,38.9058104 35.930419,38.9058104 C35.6686498,38.9058104 35.4561993,39.1201755 35.4561993,39.3843039 L35.4561993,39.8446147 C35.4561993,40.1087432 35.6686498,40.3231083 35.930419,40.3231083 C36.1921883,40.3231083 36.4046387,40.1097002 36.4046387,39.8446147 Z M36.3135885,48.4192192 L36.3135885,47.7282746 C36.3135885,47.4641461 36.1011381,47.249781 35.8393689,47.249781 C35.5775996,47.249781 35.3651492,47.4641461 35.3651492,47.7282746 L35.3651492,48.4192192 C35.3651492,48.6833477 35.5775996,48.8977128 35.8393689,48.8977128 C36.1011381,48.8977128 36.3135885,48.6833477 36.3135885,48.4192192 Z M36.2225384,56.9938238 L36.2225384,56.0732022 C36.2225384,55.8090737 36.0100879,55.5947086 35.7483187,55.5947086 C35.4865494,55.5947086 35.274099,55.8090737 35.274099,56.0732022 L35.274099,56.9938238 C35.274099,57.2579522 35.4865494,57.4723173 35.7483187,57.4723173 C36.0100879,57.4723173 36.2225384,57.2579522 36.2225384,56.9938238 Z M36.1314882,65.5684283 L36.1314882,64.4171728 C36.1314882,64.1530443 35.9190378,63.9386792 35.6572685,63.9386792 C35.3954992,63.9386792 35.1830488,64.1530443 35.1830488,64.4171728 L35.1830488,65.5684283 C35.1830488,65.8325567 35.3954992,66.0469218 35.6572685,66.0469218 C35.9190378,66.0469218 36.1314882,65.8325567 36.1314882,65.5684283 Z M36.040438,74.1420758 L36.040438,72.7621004 C36.040438,72.4979719 35.8279876,72.2836068 35.5662183,72.2836068 C35.304449,72.2836068 35.0919986,72.4979719 35.0919986,72.7621004 L35.0919986,74.1420758 C35.0919986,74.4062042 35.304449,74.6205693 35.5662183,74.6205693 C35.8279876,74.6205693 36.040438,74.4062042 36.040438,74.1420758 Z M35.9484394,82.7166803 L35.9484394,81.105114 C35.9484394,80.8409855 35.735989,80.6266204 35.4742197,80.6266204 C35.2124504,80.6266204 35,80.8409855 35,81.105114 L35,82.7166803 C35,82.9808087 35.2124504,83.1951738 35.4742197,83.1951738 C35.735989,83.1951738 35.9484394,82.9808087 35.9484394,82.7166803 Z" id="Shape"></path>
                        <path d="M47.5011291,11.3333333 L47.5011291,2.83333333 L50.3511969,2.83333333 L50.3511969,0 L43.3685309,0 C16.7707486,0 0,16.0942778 0,41.5527222 L0,85 L4.75011291,85 L4.75011291,41.5527222 C4.75011291,18.9493333 20.8282951,2.83333333 43.3685309,2.83333333 L44.6510614,2.83333333 L44.6510614,11.3333333 L31.3507452,11.3333333 L31.3507452,16.0555556 L60.8014453,16.0555556 L60.8014453,11.3333333 L47.5011291,11.3333333 Z M43.3685309,1.88888889 C20.278232,1.88888889 3.80009033,18.4025 3.80009033,41.5527222 L3.80009033,84.0555556 L0.950022583,84.0555556 L0.950022583,41.5527222 C0.950022583,16.6675556 17.3483624,0.944444444 43.3685309,0.944444444 L49.4011743,0.944444444 L49.4011743,1.88888889 L47.7262845,1.88888889 L44.9332181,1.88888889 L43.3685309,1.88888889 Z M45.601084,2.83333333 L46.5511065,2.83333333 L46.5511065,11.3333333 L45.601084,11.3333333 L45.601084,2.83333333 Z M59.8514227,15.1111111 L32.3007678,15.1111111 L32.3007678,12.2777778 L44.9332181,12.2777778 L47.7262845,12.2777778 L59.8514227,12.2777778 L59.8514227,15.1111111 Z M60.5249887,17.9444444 L32.012911,17.9444444 C31.7507047,17.9444444 31.5378997,17.7328889 31.5378997,17.4722222 C31.5378997,17.2115556 31.7507047,17 32.012911,17 L60.5249887,17 C60.7871949,17 61,17.2115556 61,17.4722222 C61,17.7328889 60.7871949,17.9444444 60.5249887,17.9444444 Z" id="Shape"></path>
                    </g>
                </g>
            </g>
        </g>
    </g>
</svg>