<?xml version="1.0" encoding="UTF-8"?>
<svg width="70px" height="81px" viewBox="0 0 70 81" version="1.1" xmlns="http://www.w3.org/2000/svg" xmlns:xlink="http://www.w3.org/1999/xlink">
    <!-- Generator: Sketch 60 (88103) - https://sketch.com -->
    <title>woman-stretching-arms-and-flexing-legs</title>
    <desc>Created with Sketch.</desc>
    <g id="Page-1" stroke="none" stroke-width="1" fill="none" fill-rule="evenodd">
        <g id="Desktop" transform="translate(-146.000000, -687.000000)" fill="#FFFFFF" fill-rule="nonzero">
            <g id="cards" transform="translate(81.000000, 627.000000)">
                <g id="card">
                    <g id="woman-stretching-arms-and-flexing-legs" transform="translate(65.000000, 60.000000)">
                        <path d="M69.3331608,43.7824183 C67.5714462,39.7632581 61.9947435,39.5040467 59.6778476,39.5790452 C58.7547464,39.6089409 57.989954,40.3065653 57.8597514,41.2376529 L57.7187126,42.2452943 L56.509809,42.0275567 C56.406358,40.4461939 55.972067,34.8175034 54.9004773,32.3124839 C54.5474571,31.487673 54.3024594,30.6175865 54.1722568,29.7267631 C53.8646128,27.621102 53.4149142,25.1378562 53.3082463,24.554976 C53.4956771,23.9040096 54.2183102,21.0039518 53.535466,17.0540875 C52.8830982,13.2811783 53.4054326,10.9919955 53.5043121,10.6121643 L54.5789496,8.85730267 C54.8772812,8.37015793 55.0427012,7.83445424 55.0860457,7.29477598 C55.1178767,6.90060175 55.1962692,6.51143894 55.3557632,6.15113501 C55.5565699,5.69751495 55.8408485,5.24925193 56.1588206,5.17477183 C56.3110341,5.13900065 56.4490252,5.04585733 56.4996502,4.89499626 C56.6566045,4.42858844 56.2781872,4.07536962 55.9043413,4.17075944 C55.348652,4.31263451 54.941282,4.7781783 54.6548023,5.27396342 C54.4446834,4.89465065 54.1634524,4.54920817 53.8119561,4.26217468 L53.5918476,4.08245473 L54.1532936,1.10204134 C54.199855,0.854753604 54.0784567,0.595887757 53.8492052,0.502744438 C53.5417306,0.378150128 53.2185097,0.57221311 53.1595884,0.885340556 L52.5835814,3.94265335 L52.2178626,4.1292856 L51.7624074,0.453667068 C51.7270207,0.169398497 51.4705096,-0.0326136355 51.1946968,0.00436719979 C50.9161748,0.0401383816 50.7190931,0.299522651 50.7543104,0.583791222 L51.2544647,4.62075053 L50.9471594,4.77765987 L49.3955638,1.05279116 C49.2993933,0.822092959 49.0584591,0.676761733 48.8183716,0.729640871 C48.4951507,0.800664812 48.3305773,1.14628009 48.4531608,1.44074432 L50.0365874,5.24251243 L49.4387389,5.54769072 L47.4503126,2.95453926 C47.2571251,2.70275852 46.8817554,2.68236722 46.6643559,2.93656726 C46.5028302,3.12561882 46.5106186,3.41126985 46.6621549,3.60878899 L48.8310701,6.43730446 L49.6519055,9.54957009 C49.5171314,10.8041536 48.3392123,21.9846352 48.9081081,24.4497362 C48.6490573,29.7948493 48.7542015,33.4428186 49.2204928,35.3065491 C47.6788868,36.6105555 41.2007551,39.5885496 38.6601951,40.701258 C37.804481,40.9158851 27.5535203,43.5750491 23.7080556,48.6393498 C20.1367105,53.3426554 17.4872815,57.4480465 17.1188537,58.023496 C16.7612621,58.3203795 14.8121167,59.9057168 13.1985521,60.5644595 C11.2251947,61.3700888 5.61479845,66.8041979 3.50294208,70.7798105 C1.43544603,72.7988949 0,75.8959535 0,77.439817 C0,78.6295976 1.44238791,79.79795 3.08659839,79.9401707 C3.53155618,79.978534 3.96567786,79.824908 4.2767081,79.5183473 C4.59112462,79.2083304 4.75840708,78.764906 4.73571898,78.3017815 L4.59925171,75.5156039 C4.57029897,74.9256386 4.77161359,74.3481155 5.15900455,73.909184 L5.20031722,73.8623532 C6.10157686,72.840196 7.137272,71.944534 8.27828058,71.2002515 C10.5811234,69.6983802 13.4760581,67.6813695 14.4467366,66.4468317 C16.3774267,65.7016851 23.0470528,61.2052303 27.068943,57.4852002 C29.4523794,55.2805203 31.8110959,55.6790147 33.3701413,56.4011778 C34.728888,57.0305433 36.2479753,57.5341047 37.8852439,57.8982104 C40.7668027,58.5389812 44.9651183,59.3294033 48.8109217,59.5130979 C49.1101,60.3292683 49.918914,62.4769217 50.651706,63.895154 C50.6742248,64.1222233 50.7001299,64.3359863 50.7289133,64.5343695 C50.805782,65.0635065 50.8007025,65.5798557 50.7135057,66.0694198 C50.2021767,68.9435565 50.6064991,75.5214793 50.8040888,78.2162417 C50.8775712,79.222155 51.6057917,80.0663203 52.5746077,80.2693693 L55.1769674,80.8142318 C55.7673661,80.9377892 56.3684316,81 56.9711903,81 C57.1868966,81 57.4031109,80.9920508 57.6188172,80.9759797 C58.4103612,80.9175708 59.5578038,80.7883106 60.530514,80.5045605 C60.6740925,80.462741 60.7921045,80.358538 60.8537349,80.2199463 C60.9151959,80.0811818 60.9138414,79.9218531 60.85001,79.7842982 C60.2970297,78.5929624 58.8365251,77.8056507 57.3541791,77.2953498 C57.4180105,77.3074463 57.4823499,77.3198885 57.5485518,77.3333675 C58.6299618,77.5540428 59.8800087,77.6255852 61.0460758,77.6255852 C61.7839472,77.6255852 62.4882944,77.5968991 63.0946087,77.5593999 C63.5722441,77.5298498 63.9906196,77.181988 64.0676576,76.6998546 C64.1450342,76.2158204 63.8842902,75.75356 63.4364541,75.5779874 C60.3556124,74.3702348 58.1276065,73.0669196 57.1625154,71.9082444 C55.7221592,70.1787855 55.4793626,64.0373747 55.511871,60.7073715 C55.5174583,60.1284659 55.6080414,59.5547445 55.7815885,59.0036609 L55.7815885,59.0036609 C56.5306347,56.631876 57.4486564,50.3466893 57.7077072,48.5102625 C58.5165213,48.6623332 59.1130153,49.0971173 59.7872245,49.5884094 C60.6810344,50.2398942 61.6847291,50.96776 63.325384,51.1047964 C63.0482166,51.9776478 62.7976315,53.1810803 62.7976315,54.6845067 C62.7976315,58.237259 64.7493166,61.5750386 64.8326192,61.7153584 C64.9255728,61.8724406 65.0913314,61.9657567 65.2670796,61.9657567 C65.2941698,61.9657567 65.3214294,61.9635102 65.3485197,61.95919 C65.5532206,61.9251469 65.7171168,61.7677192 65.7626623,61.5613868 C65.8075306,61.3583379 66.8581254,56.5637898 66.7204729,54.3746626 C66.6491916,53.2462287 66.2504566,51.9593302 65.8559544,50.9268046 C67.4446298,50.5858551 68.7065288,49.8274024 69.3875106,48.7551309 C70.2220605,47.4411016 70.2036052,45.7683237 69.3331608,43.7824183 Z M49.4361992,36.4253057 C49.4761573,36.8231089 49.4841151,37.267743 49.3925161,37.5952135 C49.3154781,37.870496 49.4717552,38.1575295 49.7413034,38.236157 C49.7878648,38.2498088 49.8349342,38.2562027 49.881157,38.2562027 C50.102112,38.2562027 50.3054584,38.1077609 50.3692899,37.8800004 C50.5785623,37.1322618 50.448021,36.1635021 50.3540516,35.6621872 C50.3228978,35.4962918 50.1896475,34.9998155 50.1469803,34.798149 C49.8533894,33.4087755 49.6290481,30.5009413 49.9267025,24.4234694 C49.9295808,24.3679982 49.9233162,24.3123541 49.9089245,24.2587837 C49.4190984,22.4589921 50.2939451,13.0427038 50.6723624,9.56633243 C50.6794736,9.50204798 50.6745634,9.4368995 50.6579706,9.37434314 L49.8931783,6.47480372 L52.9716496,4.90380945 L53.1773664,5.07177848 C54.1356849,5.85425148 54.3678147,7.24535299 53.7173094,8.30760157 L52.604407,10.1250195 C52.5817189,10.1620004 52.5637716,10.2019189 52.5509037,10.2437384 C52.518734,10.347423 51.77409,12.8332609 52.5349882,17.2343259 C53.2491556,21.3651198 52.3131865,24.3320542 52.3040436,24.3607402 C52.2766147,24.4445519 52.2706887,24.5342391 52.2867735,24.6209885 C52.2920223,24.6495018 52.8207906,27.5086042 53.1673768,29.8795251 C53.3106167,30.8605541 53.5803342,31.8187724 53.969249,32.7272222 C54.7218508,34.486404 55.1507237,38.0759643 55.3591495,40.379663 C53.1328367,40.8312093 51.3894081,40.6041401 50.1723774,39.7027755 C49.0247656,38.8525619 48.6404223,37.5921029 48.5198706,37.0128517 C48.8652716,36.8061738 49.1741007,36.6088274 49.4361992,36.4253057 Z M38.9412567,41.6985309 C38.9688549,41.6917914 38.9959452,41.6826326 39.0221889,41.6710545 C39.7375415,41.3580998 44.4788479,39.2698923 47.5988012,37.5419887 C47.8104439,38.3410512 48.3260058,39.6094593 49.562169,40.5315609 C50.5533345,41.2710048 51.8035507,41.6416772 53.2972408,41.6416772 C53.9651855,41.6416772 54.6827392,41.5661602 55.446685,41.4177185 C55.4609074,41.6031411 55.473098,41.7692092 55.4830875,41.9119483 C54.5904629,41.8917298 52.923903,42.0087206 51.8585778,43.029841 C51.153892,43.7050004 50.8340574,44.6398898 50.9080478,45.8087607 C51.112918,49.0490767 51.3098304,51.0768016 52.3160649,51.9111169 C52.6232009,52.1656626 52.988581,52.293713 53.4059406,52.293713 C53.5109154,52.293713 53.6194458,52.2855911 53.7308546,52.2693471 C54.710676,52.126608 55.6468144,51.4498933 56.341172,50.8049752 C56.291055,51.1305448 56.2377211,51.4723583 56.181678,51.8243675 C54.5643885,52.0662982 51.7715503,53.3341878 50.7741202,53.804743 L50.0286297,53.043871 C49.8858978,52.8981941 49.6722232,52.8525729 49.4844537,52.9277443 C49.4588873,52.9379399 46.8925915,53.9295102 44.7824283,51.8889975 C44.578574,51.6916512 44.2568769,51.7009828 44.0643666,51.9088704 C43.9424604,52.0402042 43.9014864,52.2195785 43.9389048,52.3834002 C41.0155253,52.6578187 38.687624,53.4631023 37.086758,54.0179877 C36.9020361,54.0820993 36.7256107,54.1432732 36.5578203,54.2002997 C36.1538366,54.3378546 35.7117571,54.3311151 35.3130221,54.1814637 C30.0712229,52.211975 29.3225154,46.856839 29.216694,45.5041008 C33.621573,43.0332971 38.8662505,41.7170213 38.9412567,41.6985309 Z M7.73156494,70.3263632 C6.51351838,71.1209328 5.40789646,72.0772502 4.44551439,73.1683577 L4.40420172,73.2151886 C3.83327414,73.862526 3.54239229,74.6982237 3.58505948,75.5681374 L3.72152675,78.3532782 C3.72965383,78.5198647 3.67631985,78.6688249 3.57117571,78.7723367 C3.46958717,78.8723923 3.32770185,78.92026 3.17261002,78.906781 C1.94220352,78.8003315 1.016224,77.9433784 1.016224,77.4396442 C1.016224,76.2785496 2.27981609,73.3779734 4.26011531,71.4758796 C4.30041209,71.4371707 4.33427494,71.3920679 4.36018002,71.3422993 C5.63105262,68.9103774 8.34228136,65.8817507 10.5718111,63.8220564 C10.8786085,64.6762446 11.5103199,65.9935572 12.6582704,66.7793136 C11.6020882,67.683616 9.90471306,68.9091677 7.73156494,70.3263632 Z M50.5595991,61.2067856 C50.0514871,59.9634346 49.6542759,58.8507262 49.6476726,58.8325814 C49.5772379,58.634371 49.3960717,58.499581 49.1895083,58.4914591 C45.3274508,58.3428445 41.0283932,57.5358328 38.1017968,56.8850392 C36.5344549,56.5364862 35.08394,56.0559082 33.7903792,55.4567841 C32.2870382,54.7605421 29.3262403,53.9982876 26.3871146,56.7165518 C22.4876386,60.3233929 15.5169718,65.0320555 13.9863712,65.5128064 C13.8798725,65.5461582 13.7872576,65.6144173 13.7224103,65.7070422 C13.6509597,65.8089987 13.5549585,65.9240885 13.4366079,66.0509294 C12.1924869,65.3501944 11.6003951,63.7468851 11.4014508,63.0807116 C12.3298008,62.2816491 13.1125404,61.7163953 13.5764614,61.5271709 C15.4991938,60.7421058 17.7331257,58.8519358 17.8272645,58.7717531 C17.8665454,58.7384012 17.9007468,58.6990011 17.9285144,58.6551079 C17.9559433,58.611906 20.705437,54.2868764 24.5114516,49.2744179 C25.4279495,48.0673565 26.7660398,46.9962948 28.2626083,46.0667625 C28.5368974,48.0937961 29.7405522,53.1928312 34.9616951,55.1545435 C35.2827149,55.2751633 35.6218513,55.3354731 35.9613263,55.3354731 C36.27151,55.3354731 36.5818629,55.2850133 36.8786708,55.1840936 C37.0481543,55.1265487 37.2264422,55.0646835 37.4130265,54.9998807 C39.2378952,54.3674047 41.727661,53.506477 44.9691819,53.3495677 C46.8451835,54.5709721 48.7750271,54.2149884 49.5288141,54.0005341 L51.4330912,55.9441016 C50.8498037,57.3993148 50.6010811,59.3834921 50.5595991,61.2067856 Z M56.38858,72.5794292 C57.7522368,74.2167816 60.7301355,75.623263 63.0185866,76.5249733 C61.5155842,76.6175982 59.4018654,76.6538878 57.7478347,76.3162217 C57.0665142,76.1772843 55.0376218,75.8282129 53.9773761,76.3404148 C54.1196001,74.8394076 54.4804087,71.022778 54.8198837,67.3955456 C55.0851991,69.5587517 55.5574165,71.5814651 56.38858,72.5794292 Z M54.8149736,58.6855221 C54.6148442,59.3192077 54.4822711,59.9888373 54.4208101,60.6757477 C54.0571231,64.7367272 52.9152679,76.7809014 52.9037546,76.9020396 C52.8770029,77.1850985 53.0784869,77.4372249 53.3554849,77.4674662 C54.7364118,77.6181545 58.220052,78.2891665 59.5473063,79.6792312 C58.8387262,79.8233528 58.1006855,79.9005978 57.5458428,79.9415532 C56.8206699,79.9954692 56.0922801,79.9469102 55.381499,79.7981229 L52.7793086,79.2532604 C52.25308,79.1430091 51.8577313,78.6847232 51.8174345,78.1384783 C51.6228924,75.4836345 51.2229722,69.0107786 51.7136449,66.254324 C51.8204821,65.6531262 51.827424,65.0232423 51.7343012,64.3819532 C51.7043326,64.1763121 51.6775809,63.9530446 51.6547235,63.7157797 C51.6538769,63.6991902 51.6523531,63.6827734 51.650152,63.6663567 C51.4434194,61.4542461 51.5663415,58.0450969 52.4967232,56.0510696 C52.5891687,55.8528592 52.5493799,55.616804 52.3971664,55.4616227 L51.5409444,54.5877345 C52.7654249,54.0255912 54.7587613,53.1807346 56.0050833,52.9085626 C55.6388566,55.1141065 55.198301,57.4717212 54.8149736,58.6855221 Z M65.7069579,54.4406752 C65.7911071,55.7775151 65.3681601,58.3005066 65.0635639,59.8951756 C64.5154937,58.6564904 63.8136862,56.680435 63.8136862,54.6841611 C63.8136862,53.117487 64.1076157,51.9164739 64.3957885,51.1156833 C64.5407215,51.1084254 64.6841307,51.0985754 64.825508,51.0852692 C65.2173012,52.0759754 65.6387243,53.3602818 65.7069579,54.4406752 Z M68.5355214,48.1907412 C67.6449286,49.5930752 65.5478025,50.0926621 63.8824278,50.0926621 C62.2275505,50.0926621 61.3291692,49.4377211 60.3779619,48.7445897 C59.5296976,48.1262839 58.6526499,47.4868957 57.298644,47.421056 C57.0407784,47.4079226 56.8078021,47.6018127 56.7713995,47.8674181 C56.7688598,47.8859085 56.7092612,48.3205197 56.6090272,49.0107134 C56.1037935,49.6577053 54.7824653,51.0686796 53.5869375,51.2430426 C53.2322242,51.2945392 53.056984,51.1899906 52.956242,51.1065245 C52.2220955,50.4977232 52.0624322,47.9712755 51.9215627,45.7420569 C51.8673822,44.8863135 52.0734376,44.247098 52.551581,43.7877753 C53.6417953,42.7402154 55.7878531,42.9610635 55.9534425,42.9800724 L58.0588649,43.3592123 C58.1948242,43.3835782 58.3338312,43.3509176 58.44524,43.2684883 C58.5566487,43.1860591 58.6304697,43.0611192 58.6499409,42.922009 L58.8653086,41.3841938 C58.9255844,40.9525203 59.280975,40.6291972 59.7100173,40.6153726 C61.8235668,40.5465952 66.8955438,40.7598398 68.4058267,44.205797 C69.1265974,45.8502345 69.1702805,47.1908762 68.5355214,48.1907412 Z" id="Shape"></path>
                    </g>
                </g>
            </g>
        </g>
    </g>
</svg>